<mxfile type="github" version="18.2.0" etag="DCOhIr6x8a3AMAkm0r-4" agent="5.0 (Windows NT 10.0; WOW64; Trident/7.0; .NET4.0C; .NET4.0E; rv:11.0) like Gecko" modified="2022-06-02T06:10:26.518Z" host="app.diagrams.net">
  <diagram name="Page-1" id="JXelhiS8BHNU6qgX8I4u">
    <mxGraphModel grid="1" shadow="0" math="0" pageHeight="1169" pageWidth="827" pageScale="1" page="1" fold="1" arrows="1" connect="1" tooltips="1" guides="1" gridSize="10" dy="578" dx="1038">
      <root>
        <mxCell id="0" />
        <mxCell id="1" parent="0" />
        <mxCell value="" id="SxBzUsyrEoBDNe4wqEWg-1" parent="1" style="group" vertex="1" connectable="0">
          <mxGeometry as="geometry" height="550" width="330" y="120" x="250" />
        </mxCell>
        <mxCell value="开机" id="hA0nTZQd6rWll61IBmI7-2" parent="SxBzUsyrEoBDNe4wqEWg-1" style="rounded=1;whiteSpace=wrap;html=1;" vertex="1">
          <mxGeometry as="geometry" height="20" width="60" x="134" />
        </mxCell>
        <mxCell value="模式管理" id="hA0nTZQd6rWll61IBmI7-4" parent="SxBzUsyrEoBDNe4wqEWg-1" style="rounded=0;whiteSpace=wrap;html=1;" vertex="1">
          <mxGeometry as="geometry" height="20" width="70" y="120" x="130" />
        </mxCell>
        <mxCell id="hA0nTZQd6rWll61IBmI7-10" parent="SxBzUsyrEoBDNe4wqEWg-1" target="hA0nTZQd6rWll61IBmI7-4" source="hA0nTZQd6rWll61IBmI7-5" edge="1" style="edgeStyle=orthogonalEdgeStyle;rounded=0;orthogonalLoop=1;jettySize=auto;html=1;exitX=0.5;exitY=1;exitDx=0;exitDy=0;entryX=0.5;entryY=0;entryDx=0;entryDy=0;">
          <mxGeometry as="geometry" relative="1" />
        </mxCell>
        <mxCell id="hA0nTZQd6rWll61IBmI7-47" parent="SxBzUsyrEoBDNe4wqEWg-1" source="hA0nTZQd6rWll61IBmI7-5" edge="1" style="edgeStyle=orthogonalEdgeStyle;rounded=0;orthogonalLoop=1;jettySize=auto;html=1;exitX=1;exitY=0.5;exitDx=0;exitDy=0;">
          <mxGeometry as="geometry" relative="1">
            <mxPoint as="targetPoint" y="30" x="170" />
            <Array as="points">
              <mxPoint y="85" x="220" />
              <mxPoint y="30" x="220" />
            </Array>
          </mxGeometry>
        </mxCell>
        <mxCell value="自检成功" id="hA0nTZQd6rWll61IBmI7-5" parent="SxBzUsyrEoBDNe4wqEWg-1" style="rhombus;whiteSpace=wrap;html=1;" vertex="1">
          <mxGeometry as="geometry" height="30" width="100" y="70" x="115" />
        </mxCell>
        <mxCell id="hA0nTZQd6rWll61IBmI7-16" parent="SxBzUsyrEoBDNe4wqEWg-1" target="hA0nTZQd6rWll61IBmI7-5" source="hA0nTZQd6rWll61IBmI7-13" edge="1" style="edgeStyle=orthogonalEdgeStyle;rounded=0;orthogonalLoop=1;jettySize=auto;html=1;exitX=0.5;exitY=1;exitDx=0;exitDy=0;entryX=0.5;entryY=0;entryDx=0;entryDy=0;">
          <mxGeometry as="geometry" relative="1" />
        </mxCell>
        <mxCell value="自检" id="hA0nTZQd6rWll61IBmI7-13" parent="SxBzUsyrEoBDNe4wqEWg-1" style="rounded=0;whiteSpace=wrap;html=1;" vertex="1">
          <mxGeometry as="geometry" height="20" width="70" y="40" x="130" />
        </mxCell>
        <mxCell id="hA0nTZQd6rWll61IBmI7-14" parent="SxBzUsyrEoBDNe4wqEWg-1" target="hA0nTZQd6rWll61IBmI7-13" source="hA0nTZQd6rWll61IBmI7-2" edge="1" style="edgeStyle=orthogonalEdgeStyle;rounded=0;orthogonalLoop=1;jettySize=auto;html=1;exitX=0.5;exitY=1;exitDx=0;exitDy=0;entryX=0.5;entryY=0;entryDx=0;entryDy=0;">
          <mxGeometry as="geometry" relative="1">
            <mxPoint as="targetPoint" y="-10" x="164" />
          </mxGeometry>
        </mxCell>
        <mxCell value="有地图" id="hA0nTZQd6rWll61IBmI7-17" parent="SxBzUsyrEoBDNe4wqEWg-1" style="rhombus;whiteSpace=wrap;html=1;" vertex="1">
          <mxGeometry as="geometry" height="30" width="100" y="150" x="115" />
        </mxCell>
        <mxCell id="hA0nTZQd6rWll61IBmI7-18" parent="SxBzUsyrEoBDNe4wqEWg-1" target="hA0nTZQd6rWll61IBmI7-17" source="hA0nTZQd6rWll61IBmI7-4" edge="1" style="edgeStyle=orthogonalEdgeStyle;rounded=0;orthogonalLoop=1;jettySize=auto;html=1;exitX=0.5;exitY=1;exitDx=0;exitDy=0;entryX=0.5;entryY=0;entryDx=0;entryDy=0;">
          <mxGeometry as="geometry" relative="1" />
        </mxCell>
        <mxCell id="hA0nTZQd6rWll61IBmI7-29" parent="SxBzUsyrEoBDNe4wqEWg-1" source="hA0nTZQd6rWll61IBmI7-26" edge="1" style="edgeStyle=orthogonalEdgeStyle;rounded=0;orthogonalLoop=1;jettySize=auto;html=1;exitX=0;exitY=0.5;exitDx=0;exitDy=0;startArrow=none;">
          <mxGeometry as="geometry" relative="1">
            <mxPoint as="targetPoint" y="170" x="65" />
            <Array as="points">
              <mxPoint y="225" x="10" />
              <mxPoint y="170" x="10" />
            </Array>
          </mxGeometry>
        </mxCell>
        <mxCell id="hA0nTZQd6rWll61IBmI7-30" parent="SxBzUsyrEoBDNe4wqEWg-1" source="hA0nTZQd6rWll61IBmI7-26" edge="1" style="edgeStyle=orthogonalEdgeStyle;rounded=0;orthogonalLoop=1;jettySize=auto;html=1;exitX=0.5;exitY=1;exitDx=0;exitDy=0;">
          <mxGeometry as="geometry" relative="1">
            <mxPoint as="targetPoint" y="110" x="160" />
            <Array as="points">
              <mxPoint y="250" x="65" />
              <mxPoint y="250" />
              <mxPoint y="110" />
            </Array>
          </mxGeometry>
        </mxCell>
        <mxCell value="结束建图" id="hA0nTZQd6rWll61IBmI7-26" parent="SxBzUsyrEoBDNe4wqEWg-1" style="rhombus;whiteSpace=wrap;html=1;" vertex="1">
          <mxGeometry as="geometry" height="30" width="100" y="210" x="15" />
        </mxCell>
        <mxCell id="hA0nTZQd6rWll61IBmI7-65" parent="SxBzUsyrEoBDNe4wqEWg-1" source="hA0nTZQd6rWll61IBmI7-31" edge="1" style="edgeStyle=orthogonalEdgeStyle;rounded=0;orthogonalLoop=1;jettySize=auto;html=1;exitX=1;exitY=0.5;exitDx=0;exitDy=0;startArrow=none;">
          <mxGeometry as="geometry" relative="1">
            <mxPoint as="targetPoint" y="170" x="270" />
            <Array as="points">
              <mxPoint y="170" x="320" />
            </Array>
          </mxGeometry>
        </mxCell>
        <mxCell value="" id="SxBzUsyrEoBDNe4wqEWg-5" parent="SxBzUsyrEoBDNe4wqEWg-1" target="hA0nTZQd6rWll61IBmI7-35" source="hA0nTZQd6rWll61IBmI7-34" edge="1" style="edgeStyle=orthogonalEdgeStyle;rounded=0;orthogonalLoop=1;jettySize=auto;html=1;">
          <mxGeometry as="geometry" relative="1" />
        </mxCell>
        <mxCell value="路径规划" id="hA0nTZQd6rWll61IBmI7-34" parent="SxBzUsyrEoBDNe4wqEWg-1" style="rounded=0;whiteSpace=wrap;html=1;" vertex="1">
          <mxGeometry as="geometry" height="20" width="70" y="265" x="235" />
        </mxCell>
        <mxCell id="hA0nTZQd6rWll61IBmI7-36" parent="SxBzUsyrEoBDNe4wqEWg-1" target="hA0nTZQd6rWll61IBmI7-34" source="hA0nTZQd6rWll61IBmI7-31" edge="1" style="edgeStyle=orthogonalEdgeStyle;rounded=0;orthogonalLoop=1;jettySize=auto;html=1;exitX=0.5;exitY=1;exitDx=0;exitDy=0;entryX=0.5;entryY=0;entryDx=0;entryDy=0;">
          <mxGeometry as="geometry" relative="1" />
        </mxCell>
        <mxCell id="hA0nTZQd6rWll61IBmI7-44" parent="SxBzUsyrEoBDNe4wqEWg-1" source="hA0nTZQd6rWll61IBmI7-35" edge="1" style="edgeStyle=orthogonalEdgeStyle;rounded=0;orthogonalLoop=1;jettySize=auto;html=1;exitX=0;exitY=0.5;exitDx=0;exitDy=0;">
          <mxGeometry as="geometry" relative="1">
            <mxPoint as="targetPoint" y="170" x="265" />
            <Array as="points">
              <mxPoint y="315" x="210" />
              <mxPoint y="170" x="210" />
            </Array>
          </mxGeometry>
        </mxCell>
        <mxCell value="规划成功" id="hA0nTZQd6rWll61IBmI7-35" parent="SxBzUsyrEoBDNe4wqEWg-1" style="rhombus;whiteSpace=wrap;html=1;" vertex="1">
          <mxGeometry as="geometry" height="30" width="100" y="300" x="220" />
        </mxCell>
        <mxCell id="hA0nTZQd6rWll61IBmI7-37" parent="SxBzUsyrEoBDNe4wqEWg-1" target="hA0nTZQd6rWll61IBmI7-35" source="hA0nTZQd6rWll61IBmI7-34" edge="1" style="edgeStyle=orthogonalEdgeStyle;rounded=0;orthogonalLoop=1;jettySize=auto;html=1;exitX=0.5;exitY=1;exitDx=0;exitDy=0;entryX=0.5;entryY=0;entryDx=0;entryDy=0;">
          <mxGeometry as="geometry" relative="1" />
        </mxCell>
        <mxCell id="hA0nTZQd6rWll61IBmI7-43" parent="SxBzUsyrEoBDNe4wqEWg-1" source="hA0nTZQd6rWll61IBmI7-39" edge="1" style="edgeStyle=orthogonalEdgeStyle;rounded=0;orthogonalLoop=1;jettySize=auto;html=1;exitX=0.5;exitY=1;exitDx=0;exitDy=0;">
          <mxGeometry as="geometry" relative="1">
            <mxPoint as="targetPoint" y="170" x="270" />
            <Array as="points">
              <mxPoint y="430" x="270" />
              <mxPoint y="430" x="340" />
              <mxPoint y="170" x="340" />
            </Array>
          </mxGeometry>
        </mxCell>
        <mxCell id="hA0nTZQd6rWll61IBmI7-71" parent="SxBzUsyrEoBDNe4wqEWg-1" source="hA0nTZQd6rWll61IBmI7-39" edge="1" style="edgeStyle=orthogonalEdgeStyle;rounded=0;orthogonalLoop=1;jettySize=auto;html=1;exitX=1;exitY=0.5;exitDx=0;exitDy=0;">
          <mxGeometry as="geometry" relative="1">
            <mxPoint as="targetPoint" y="340" x="270" />
            <Array as="points">
              <mxPoint y="403" x="330" />
              <mxPoint y="340" x="330" />
            </Array>
          </mxGeometry>
        </mxCell>
        <mxCell value="达到任务点" id="hA0nTZQd6rWll61IBmI7-39" parent="SxBzUsyrEoBDNe4wqEWg-1" style="rhombus;whiteSpace=wrap;html=1;" vertex="1">
          <mxGeometry as="geometry" height="25" width="100" y="390" x="220" />
        </mxCell>
        <mxCell value="Y" id="hA0nTZQd6rWll61IBmI7-45" parent="SxBzUsyrEoBDNe4wqEWg-1" style="whiteSpace=wrap;html=1;aspect=fixed;strokeColor=none;" vertex="1">
          <mxGeometry as="geometry" height="10" width="10" y="100" x="170" />
        </mxCell>
        <mxCell value="N" id="hA0nTZQd6rWll61IBmI7-46" parent="SxBzUsyrEoBDNe4wqEWg-1" style="whiteSpace=wrap;html=1;aspect=fixed;strokeColor=none;" vertex="1">
          <mxGeometry as="geometry" height="10" width="10" y="150" x="105" />
        </mxCell>
        <mxCell value="N" id="hA0nTZQd6rWll61IBmI7-48" parent="SxBzUsyrEoBDNe4wqEWg-1" style="whiteSpace=wrap;html=1;aspect=fixed;strokeColor=none;" vertex="1">
          <mxGeometry as="geometry" height="10" width="10" y="70" x="205" />
        </mxCell>
        <mxCell value="Y" id="hA0nTZQd6rWll61IBmI7-53" parent="SxBzUsyrEoBDNe4wqEWg-1" style="whiteSpace=wrap;html=1;aspect=fixed;strokeColor=none;" vertex="1">
          <mxGeometry as="geometry" height="10" width="10" y="150" x="220" />
        </mxCell>
        <mxCell value="Y" id="hA0nTZQd6rWll61IBmI7-54" parent="SxBzUsyrEoBDNe4wqEWg-1" style="whiteSpace=wrap;html=1;aspect=fixed;strokeColor=none;" vertex="1">
          <mxGeometry as="geometry" height="10" width="10" y="250" x="280" />
        </mxCell>
        <mxCell value="Y" id="hA0nTZQd6rWll61IBmI7-55" parent="SxBzUsyrEoBDNe4wqEWg-1" style="whiteSpace=wrap;html=1;aspect=fixed;strokeColor=none;" vertex="1">
          <mxGeometry as="geometry" height="10" width="10" y="330" x="260" />
        </mxCell>
        <mxCell value="Y" id="hA0nTZQd6rWll61IBmI7-56" parent="SxBzUsyrEoBDNe4wqEWg-1" style="whiteSpace=wrap;html=1;aspect=fixed;strokeColor=none;" vertex="1">
          <mxGeometry as="geometry" height="10" width="10" y="415" x="280" />
        </mxCell>
        <mxCell value="Y" id="hA0nTZQd6rWll61IBmI7-57" parent="SxBzUsyrEoBDNe4wqEWg-1" style="whiteSpace=wrap;html=1;aspect=fixed;strokeColor=none;" vertex="1">
          <mxGeometry as="geometry" height="10" width="10" y="240" x="50" />
        </mxCell>
        <mxCell value="N" id="hA0nTZQd6rWll61IBmI7-59" parent="SxBzUsyrEoBDNe4wqEWg-1" style="whiteSpace=wrap;html=1;aspect=fixed;strokeColor=none;" vertex="1">
          <mxGeometry as="geometry" height="10" width="10" y="210" x="15" />
        </mxCell>
        <mxCell value="N" id="hA0nTZQd6rWll61IBmI7-61" parent="SxBzUsyrEoBDNe4wqEWg-1" style="whiteSpace=wrap;html=1;aspect=fixed;strokeColor=none;" vertex="1">
          <mxGeometry as="geometry" height="10" width="10" y="300" x="220" />
        </mxCell>
        <mxCell value="N" id="hA0nTZQd6rWll61IBmI7-62" parent="SxBzUsyrEoBDNe4wqEWg-1" style="whiteSpace=wrap;html=1;aspect=fixed;strokeColor=none;" vertex="1">
          <mxGeometry as="geometry" height="10" width="10" y="390" x="310" />
        </mxCell>
        <mxCell value="N" id="hA0nTZQd6rWll61IBmI7-60" parent="SxBzUsyrEoBDNe4wqEWg-1" style="whiteSpace=wrap;html=1;aspect=fixed;strokeColor=none;" vertex="1">
          <mxGeometry as="geometry" height="10" width="10" y="220" x="305" />
        </mxCell>
        <mxCell value="建图模式" id="hA0nTZQd6rWll61IBmI7-19" parent="SxBzUsyrEoBDNe4wqEWg-1" style="rounded=0;whiteSpace=wrap;html=1;" vertex="1">
          <mxGeometry as="geometry" height="20" width="70" y="180" x="30" />
        </mxCell>
        <mxCell id="hA0nTZQd6rWll61IBmI7-21" parent="SxBzUsyrEoBDNe4wqEWg-1" target="hA0nTZQd6rWll61IBmI7-19" source="hA0nTZQd6rWll61IBmI7-17" edge="1" style="edgeStyle=orthogonalEdgeStyle;rounded=0;orthogonalLoop=1;jettySize=auto;html=1;exitX=0;exitY=0.5;exitDx=0;exitDy=0;entryX=0.5;entryY=0;entryDx=0;entryDy=0;">
          <mxGeometry as="geometry" relative="1">
            <Array as="points">
              <mxPoint y="165" x="65" />
            </Array>
          </mxGeometry>
        </mxCell>
        <mxCell id="hA0nTZQd6rWll61IBmI7-27" parent="SxBzUsyrEoBDNe4wqEWg-1" target="hA0nTZQd6rWll61IBmI7-26" source="hA0nTZQd6rWll61IBmI7-19" edge="1" style="edgeStyle=orthogonalEdgeStyle;rounded=0;orthogonalLoop=1;jettySize=auto;html=1;exitX=0.5;exitY=1;exitDx=0;exitDy=0;entryX=0.5;entryY=0;entryDx=0;entryDy=0;">
          <mxGeometry as="geometry" relative="1" />
        </mxCell>
        <mxCell value="导航模式" id="hA0nTZQd6rWll61IBmI7-20" parent="SxBzUsyrEoBDNe4wqEWg-1" style="rounded=0;whiteSpace=wrap;html=1;" vertex="1">
          <mxGeometry as="geometry" height="20" width="70" y="180" x="230" />
        </mxCell>
        <mxCell id="hA0nTZQd6rWll61IBmI7-22" parent="SxBzUsyrEoBDNe4wqEWg-1" target="hA0nTZQd6rWll61IBmI7-20" source="hA0nTZQd6rWll61IBmI7-17" edge="1" style="edgeStyle=orthogonalEdgeStyle;rounded=0;orthogonalLoop=1;jettySize=auto;html=1;exitX=1;exitY=0.5;exitDx=0;exitDy=0;entryX=0.5;entryY=0;entryDx=0;entryDy=0;">
          <mxGeometry as="geometry" relative="1">
            <Array as="points">
              <mxPoint y="165" x="265" />
            </Array>
          </mxGeometry>
        </mxCell>
        <mxCell id="hA0nTZQd6rWll61IBmI7-32" parent="SxBzUsyrEoBDNe4wqEWg-1" target="hA0nTZQd6rWll61IBmI7-31" source="hA0nTZQd6rWll61IBmI7-20" edge="1" style="edgeStyle=orthogonalEdgeStyle;rounded=0;orthogonalLoop=1;jettySize=auto;html=1;exitX=0.5;exitY=1;exitDx=0;exitDy=0;entryX=0.5;entryY=0;entryDx=0;entryDy=0;">
          <mxGeometry as="geometry" relative="1" />
        </mxCell>
        <mxCell value="跟踪控制" id="hA0nTZQd6rWll61IBmI7-38" parent="SxBzUsyrEoBDNe4wqEWg-1" style="rounded=0;whiteSpace=wrap;html=1;" vertex="1">
          <mxGeometry as="geometry" height="20" width="70" y="350" x="235" />
        </mxCell>
        <mxCell id="hA0nTZQd6rWll61IBmI7-40" parent="SxBzUsyrEoBDNe4wqEWg-1" target="hA0nTZQd6rWll61IBmI7-38" source="hA0nTZQd6rWll61IBmI7-35" edge="1" style="edgeStyle=orthogonalEdgeStyle;rounded=0;orthogonalLoop=1;jettySize=auto;html=1;exitX=0.5;exitY=1;exitDx=0;exitDy=0;entryX=0.5;entryY=0;entryDx=0;entryDy=0;">
          <mxGeometry as="geometry" relative="1">
            <mxPoint as="targetPoint" y="460" x="265" />
          </mxGeometry>
        </mxCell>
        <mxCell id="hA0nTZQd6rWll61IBmI7-41" parent="SxBzUsyrEoBDNe4wqEWg-1" target="hA0nTZQd6rWll61IBmI7-39" source="hA0nTZQd6rWll61IBmI7-38" edge="1" style="edgeStyle=orthogonalEdgeStyle;rounded=0;orthogonalLoop=1;jettySize=auto;html=1;exitX=0.5;exitY=1;exitDx=0;exitDy=0;entryX=0.5;entryY=0;entryDx=0;entryDy=0;">
          <mxGeometry as="geometry" relative="1" />
        </mxCell>
        <mxCell value="接受到任务" id="hA0nTZQd6rWll61IBmI7-31" parent="SxBzUsyrEoBDNe4wqEWg-1" style="rhombus;whiteSpace=wrap;html=1;" vertex="1">
          <mxGeometry as="geometry" height="30" width="100" y="220" x="220" />
        </mxCell>
      </root>
    </mxGraphModel>
  </diagram>
</mxfile>
